<svg version="1" xmlns="http://www.w3.org/2000/svg" width="682.667" height="682.667" viewBox="0 0 512.000000 512.000000"><path d="M320 4.5c-19.5 2-36.1 5.3-47 9.2-10 3.6-10.4 3.6-21.3.8-6.3-1.7-7.1-1.7-13.3-.1-12.2 3-30.3 14.6-45.9 29.6-5.5 5.3-12.6 11.5-15.8 13.8-9.4 7-11.2 13.1-5.3 18.7l3.5 3.2-5.1 4.2c-7.4 6-12.4 6.6-16.6 2l-1.9-2-.6 2.2c-1.1 4.3 2.9 7.9 8.8 7.9 2.1 0 2.2.2 1.3 2.8-1.7 4.5-.3 8.1 3.8 9.8 4.4 1.8 5.1 1.4 2.9-2-2.7-4.1-1.6-6.6 5.5-11.7 3.6-2.6 6.8-4.8 7.1-4.8.4-.1.9 1.8 1.2 4.1.4 2.8 1.5 5.1 3.6 7.2 2.9 2.8 3.7 3.1 9.5 3.1 5.7 0 6.9-.4 11.7-3.7 9.8-6.8 21.8-11.7 43.9-18.2 10.1-3 17.3-7.4 19.1-11.8 3.3-8 9.1-11.7 25.9-16.7 20.3-6 38.4-7.4 57.7-4.5 30.3 4.5 53.5 14.2 69.5 29.3 17.3 16.3 24.8 31.7 24.8 51.6 0 15.7-4.8 27.7-15.9 39.8-8.5 9.1-18.2 16.3-41.6 30.5-20.7 12.6-59.7 29-112.5 47.2l-19.5 6.8-.7 18.3c-.3 10.1-.5 18.5-.4 18.6.5.6 40.5-11.2 57.1-16.9 27.3-9.2 44-16 66-26.8 64.5-31.9 94.5-60.5 104.2-99.5 2.3-9.3 2.7-13.1 2.7-24.5-.1-15-1.5-23.3-6.4-35.8C469.5 59 446.1 34.9 414.6 19c-12.7-6.4-22.8-9.9-37.1-13-13-2.8-38.6-3.5-57.5-1.5zm-85 29.9c0 .2-5.7 3.5-12.7 7.2-7.1 3.7-15.2 8-18 9.6-2.9 1.7-5.3 2.8-5.3 2.5 0-.3 3-4.3 6.6-8.9l6.5-8.3 9.2-1.1c11-1.3 13.7-1.5 13.7-1zm12.1 33.5c-6.9 7.6-7.4 8-12.4 8.6-2.9.4-7.9.5-11.1.3l-5.9-.3 17.9-8.2c9.8-4.5 18.1-8.2 18.3-8.2.2-.1-2.9 3.5-6.8 7.8z"/><path d="M24.1 134.6c-1.9 1.4-2.2 2.3-1.8 5.1 1.3 7.5 3.4 9 41.5 28.4 19.6 10 40.7 20.7 46.7 23.9 6.1 3.2 29.5 15.1 52 26.6 62.6 31.7 58.9 29.6 59.7 33.7 1.3 6.1 2.8 31.7 2.8 46.9 0 16.3-.3 17-5.7 12.4l-2.8-2.4 2.3-3.1c1.8-2.5 2.2-4.3 2.2-10.8 0-11.7-1.2-30.3-2-30.3-2 0-13.9 8.3-19 13.3-11 10.8-16.1 25.8-14.1 41.5 1.1 8.7 3.8 14.8 8.6 19.6 4.5 4.6 13.8 9.2 21.8 10.8l5.7 1.2v45.1l-.1 45-2.9-3.3c-3.3-3.5-3.7-6.6-1.5-9.6 1.2-1.6 1.5-6 1.5-22.8v-20.9l-2.2 1.2c-1.2.6-5.8 4.8-10.3 9.3-10.9 10.7-15.5 19.8-16.2 31.9-.9 13.3 3.1 25 11.1 33.1 3.6 3.5 11.4 8.3 15.3 9.2 2.2.6 2.4 1.1 2.1 6.2l-.3 5.6-10 1.7c-45.2 7.7-83.8 15-86.3 16.3-1.7.9-3.6 2.5-4.2 3.5-2.6 5-5.5 4.7 63.3 5.4 35.3.4 87.3 1 115.5 1.4 50.7.6 51.2.6 51.2-1.4 0-3.3-3-4.9-14.5-8.1-20.3-5.6-78.8-18.2-84.6-18.2-.6 0-.9-1.6-.7-3.8.3-3.6.4-3.7 5.3-4.4 9-1.2 27.2-.8 39.2.7 25.1 3.3 51.4 12.1 77.2 25.6 6.2 3.3 11.5 5.8 11.7 5.6.3-.2-1.1-3.5-3-7.3-11.3-22.4-41.5-36.6-95.1-44.4-7.1-1-16.4-2.1-20.5-2.5-4.1-.3-9-.8-10.7-1.1l-3.3-.5v-15.8c0-8.7.3-28 .7-42.9l.6-27.2h2.3c3.1 0 4 1.7 2 3.9-1.3 1.4-1.7 5.5-2.2 20.9-.4 10.6-.3 19.2.1 19.2.5 0 5.1-2 10.2-4.5 11.4-5.5 18.6-12.3 23.1-21.5 7.6-15.7 5.9-31.5-4.6-43.2-4.5-5-15.9-12.6-23.6-15.7l-5.6-2.3.6-21.7c.4-11.9.9-28.8 1.3-37.5l.6-15.9 34.5-19.9c19-11 57.6-33.3 85.7-49.5 49.1-28.3 51.3-29.8 53.3-33.8 2.4-5 2.5-5.9.4-7.9-1.4-1.4-21.1-1.6-201.7-1.6-183.6 0-200.4.1-202.6 1.6z"/></svg>