<?xml version="1.0" standalone="no"?>
<!DOCTYPE svg PUBLIC "-//W3C//DTD SVG 20010904//EN"
 "http://www.w3.org/TR/2001/REC-SVG-20010904/DTD/svg10.dtd">
<svg version="1.0" xmlns="http://www.w3.org/2000/svg"
 width="512.000000pt" height="512.000000pt" viewBox="0 0 512.000000 512.000000"
 preserveAspectRatio="xMidYMid meet">
<metadata>
Created by potrace 1.11, written by Peter Selinger 2001-2013
</metadata>
<g transform="translate(0.000000,512.000000) scale(0.100000,-0.100000)"
fill="#000000" stroke="none">
<path d="M3200 5075 c-195 -20 -361 -53 -470 -92 -100 -36 -104 -36 -213 -8
-63 17 -71 17 -133 1 -122 -30 -303 -146 -459 -296 -55 -53 -126 -115 -158
-138 -94 -70 -112 -131 -53 -187 l35 -32 -51 -42 c-74 -60 -124 -66 -166 -20
l-19 20 -6 -22 c-11 -43 29 -79 88 -79 21 0 22 -2 13 -28 -17 -45 -3 -81 38
-98 44 -18 51 -14 29 20 -27 41 -16 66 55 117 36 26 68 48 71 48 4 1 9 -18 12
-41 4 -28 15 -51 36 -72 29 -28 37 -31 95 -31 57 0 69 4 117 37 98 68 218 117
439 182 101 30 173 74 191 118 33 80 91 117 259 167 203 60 384 74 577 45 303
-45 535 -142 695 -293 173 -163 248 -317 248 -516 0 -157 -48 -277 -159 -398
-85 -91 -182 -163 -416 -305 -207 -126 -597 -290 -1125 -472 l-195 -68 -7
-183 c-3 -101 -5 -185 -4 -186 5 -6 405 112 571 169 273 92 440 160 660 268
645 319 945 605 1042 995 23 93 27 131 27 245 -1 150 -15 233 -64 358 -105
272 -339 513 -654 672 -127 64 -228 99 -371 130 -130 28 -386 35 -575 15z
m-850 -299 c0 -2 -57 -35 -127 -72 -71 -37 -152 -80 -180 -96 -29 -17 -53 -28
-53 -25 0 3 30 43 66 89 l65 83 92 11 c110 13 137 15 137 10z m121 -335 c-69
-76 -74 -80 -124 -86 -29 -4 -79 -5 -111 -3 l-59 3 179 82 c98 45 181 82 183
82 2 1 -29 -35 -68 -78z"/>
<path d="M241 3774 c-19 -14 -22 -23 -18 -51 13 -75 34 -90 415 -284 196 -100
407 -207 467 -239 61 -32 295 -151 520 -266 626 -317 589 -296 597 -337 13
-61 28 -317 28 -469 0 -163 -3 -170 -57 -124 l-28 24 23 31 c18 25 22 43 22
108 0 117 -12 303 -20 303 -20 0 -139 -83 -190 -133 -110 -108 -161 -258 -141
-415 11 -87 38 -148 86 -196 45 -46 138 -92 218 -108 l57 -12 0 -451 -1 -450
-29 33 c-33 35 -37 66 -15 96 12 16 15 60 15 228 l0 209 -22 -12 c-12 -6 -58
-48 -103 -93 -109 -107 -155 -198 -162 -319 -9 -133 31 -250 111 -331 36 -35
114 -83 153 -92 22 -6 24 -11 21 -62 l-3 -56 -100 -17 c-452 -77 -838 -150
-863 -163 -17 -9 -36 -25 -42 -35 -26 -50 -55 -47 633 -54 353 -4 873 -10
1155 -14 507 -6 512 -6 512 14 0 33 -30 49 -145 81 -203 56 -788 182 -846 182
-6 0 -9 16 -7 38 3 36 4 37 53 44 90 12 272 8 392 -7 251 -33 514 -121 772
-256 62 -33 115 -58 117 -56 3 2 -11 35 -30 73 -113 224 -415 366 -951 444
-71 10 -164 21 -205 25 -41 3 -90 8 -107 11 l-33 5 0 158 c0 87 3 280 7 429
l6 272 23 0 c31 0 40 -17 20 -39 -13 -14 -17 -55 -22 -209 -4 -106 -3 -192 1
-192 5 0 51 20 102 45 114 55 186 123 231 215 76 157 59 315 -46 432 -45 50
-159 126 -236 157 l-56 23 6 217 c4 119 9 288 13 375 l6 159 345 199 c190 110
576 333 857 495 491 283 513 298 533 338 24 50 25 59 4 79 -14 14 -211 16
-2017 16 -1836 0 -2004 -1 -2026 -16z"/>
</g>
</svg>
